<svg width="1594" height="278" viewBox="0 0 1594 278" fill="none" xmlns="http://www.w3.org/2000/svg">
<path d="M10.55 214.789L10.761 183.561L10.55 67.3H123.857C134.407 67.3 144.465 69.1287 154.03 72.786C163.595 76.4433 172.106 81.7183 179.561 88.611C187.157 95.6443 192.995 103.662 197.074 112.665C201.153 121.527 203.193 130.952 203.193 140.939C203.193 151.067 201.153 160.632 197.074 169.635C192.995 178.497 187.157 186.445 179.561 193.478C172.106 200.371 163.595 205.646 154.03 209.303C144.465 212.96 134.407 214.789 123.857 214.789H10.55ZM32.072 88.611V183.772V193.478H123.857C131.875 193.478 139.33 192.142 146.223 189.469C153.256 186.656 159.375 182.858 164.58 178.075C169.925 173.292 174.075 167.736 177.029 161.406C180.124 154.935 181.671 148.113 181.671 140.939C181.671 133.765 180.124 127.013 177.029 120.683C174.075 114.353 169.925 108.797 164.58 104.014C159.375 99.2313 153.256 95.5037 146.223 92.831C139.33 90.0177 131.875 88.611 123.857 88.611H32.072ZM381.846 214.789H224.229V67.3H381.846L358.214 88.611H245.751V130.389H299.345L316.436 151.7H245.751V193.478H362.012L381.846 214.789ZM522.088 214.789H403.084V67.722L424.606 89.666V193.478H499.089L522.088 214.789ZM622.966 89.033H572.748V215.422H551.437V89.033H497.632L481.385 67.722H638.58L622.966 89.033ZM705.953 107.601L636.112 215H610.581L707.008 66.878L793.94 215H769.042L705.953 107.601Z" fill="white"/>
<path d="M851.1 27L819 62.1L850.9 97H837.1L812.1 69.7L787 97H773.3L805.2 62.1L773 27H786.8L812.1 54.6L837.3 27H851.1Z" fill="white"/>
</svg>
